<?xml version="1.0" encoding="UTF-8"?>
<svg version="1.1" xmlns="http://www.w3.org/2000/svg" width="1440" height="482">
<path d="M0 0 C106.26 0 212.52 0 322 0 C322 105.93 322 211.86 322 321 C269.2 321 216.4 321 162 321 C162 374.13 162 427.26 162 482 C55.74 482 -50.52 482 -160 482 C-160 375.74 -160 269.48 -160 160 C-107.2 160 -54.4 160 0 160 C0 107.2 0 54.4 0 0 Z " fill="#00447C" transform="translate(1118,0)"/>
<path d="M0 0 C79.53 0 159.06 0 241 0 C241 79.53 241 159.06 241 241 C161.47 241 81.94 241 0 241 C0 161.47 0 81.94 0 0 Z " fill="#4E89BD" transform="translate(958,241)"/>
<path d="M0 0 C35.19630462 -0.04217371 35.19630462 -0.04217371 48.73828125 -0.05078125 C49.57111507 -0.05131248 50.4039489 -0.05184372 51.26202011 -0.05239105 C57.48717985 -0.05626174 63.71233978 -0.0595243 69.9375 -0.0625 C70.81934338 -0.0629343 71.70118675 -0.06336861 72.60975266 -0.06381607 C131.90818032 -0.09221063 191.20291409 0.10288155 250.5 0.5 C251.84083657 0.50896057 251.84083657 0.50896057 253.20876074 0.51810217 C275.80591017 0.66929905 298.40298923 0.82930517 321 1 C321.17768122 24.31242449 321.34308308 47.62492693 321.5 70.9375 C321.50594854 71.81934338 321.51189708 72.70118675 321.51802588 73.60975266 C321.91720405 132.90684084 322.09149429 192.20159434 322.0625 251.5 C322.06207577 252.39389104 322.06165154 253.28778209 322.06121445 254.20876074 C322.05821367 260.42424901 322.05471626 266.63973686 322.05078125 272.85522461 C322.05004482 274.02254173 322.05004482 274.02254173 322.04929352 275.21344101 C322.0390489 290.80896955 322.01852689 306.40447647 322 322 C295.27 322 268.54 322 241 322 C241 242.47 241 162.94 241 81 C161.47 81 81.94 81 0 81 C0 54.27 0 27.54 0 0 Z " fill="#00447C" transform="translate(958,160)"/>
<path d="M0 0 C79.2 0 158.4 0 240 0 C240 79.2 240 158.4 240 240 C213.6 240 187.2 240 160 240 C160 187.2 160 134.4 160 80 C107.2 80 54.4 80 0 80 C0 53.6 0 27.2 0 0 Z " fill="#4E89BD" transform="translate(1119,81)"/>
<path d="M0 0 C52.8 0 105.6 0 160 0 C160 52.8 160 105.6 160 160 C107.2 160 54.4 160 0 160 C0 107.2 0 54.4 0 0 Z " fill="#94B8D8" transform="translate(959,321)"/>
<path d="M0 0 C14.19 0 28.38 0 43 0 C45.041875 7.0846875 45.041875 7.0846875 47.125 14.3125 C49.74828836 23.39009088 52.40041756 32.44739863 55.3125 41.4375 C57.51587804 48.24821035 59.31732804 55.08418894 60.98828125 62.04296875 C62.65846123 68.79008727 64.85581622 75.39169588 67 82 C69.77401582 73.89043034 72.39647091 65.77165011 74.7722168 57.53540039 C77.27239169 48.94406216 79.98246935 40.41748221 82.66583252 31.88208008 C85.42023667 23.11744243 88.14836458 14.34898012 90.64257812 5.50585938 C91.89910815 1.10089185 91.89910815 1.10089185 93 0 C106.86 0 120.72 0 135 0 C135 39.6 135 79.2 135 120 C126.09 120 117.18 120 108 120 C107.67 89.64 107.34 59.28 107 28 C105.35 33.28 103.7 38.56 102 44 C101.04486176 46.90541586 100.08459308 49.80503671 99.09765625 52.69921875 C98.59754888 54.17975904 98.09772108 55.66039379 97.59814453 57.14111328 C97.34695862 57.88427795 97.09577271 58.62744263 96.8369751 59.39312744 C92.9590131 70.88154019 89.1765969 82.35891966 85.95654297 94.05249023 C84.35785331 99.84066239 82.58372567 105.55228796 80.6875 111.25 C80.43242676 112.02037598 80.17735352 112.79075195 79.91455078 113.58447266 C78.12995417 118.87004583 78.12995417 118.87004583 77 120 C75.43827255 120.08685603 73.87270656 120.10702219 72.30859375 120.09765625 C71.36435547 120.09443359 70.42011719 120.09121094 69.44726562 120.08789062 C68.45404297 120.07951172 67.46082031 120.07113281 66.4375 120.0625 C65.44041016 120.05798828 64.44332031 120.05347656 63.41601562 120.04882812 C60.94395151 120.03700007 58.47200482 120.02051849 56 120 C53.0479389 112.85832825 50.43624318 105.64502096 48 98.3125 C47.67 97.33861328 47.34 96.36472656 47 95.36132812 C45.17052241 89.87646855 43.54884649 84.38349034 42.1015625 78.78515625 C39.91600557 70.42694988 37.17624215 62.29373543 34.375 54.125 C33.39816822 51.27526635 32.42777472 48.42345037 31.4609375 45.5703125 C31.03603027 44.33039551 30.61112305 43.09047852 30.17333984 41.81298828 C29.29160242 38.94761686 28.56166029 36.1819916 27.92666626 33.26168823 C27.75162882 32.46078199 27.57659138 31.65987576 27.39624977 30.83469963 C27.26548735 30.22924875 27.13472492 29.62379787 27 29 C26.98969254 30.12530624 26.97938507 31.25061249 26.96876526 32.41001892 C26.87120809 42.99067164 26.76849127 53.57126321 26.66066074 64.15181637 C26.60538531 69.59199386 26.55195806 75.03217668 26.50268555 80.47241211 C26.45510998 85.71790476 26.40276991 90.9633298 26.34705925 96.20874214 C26.32660474 98.21469004 26.30789691 100.22065649 26.29092598 102.22663689 C26.26695023 105.02607849 26.23688675 107.82539103 26.20532227 110.62475586 C26.1995668 111.46272705 26.19381134 112.30069824 26.18788147 113.1640625 C26.11405216 118.88594784 26.11405216 118.88594784 25 120 C23.23140807 120.09946453 21.45888549 120.13080217 19.6875 120.1328125 C18.61242187 120.13410156 17.53734375 120.13539063 16.4296875 120.13671875 C15.29789063 120.13285156 14.16609375 120.12898438 13 120.125 C11.86820313 120.12886719 10.73640625 120.13273437 9.5703125 120.13671875 C8.49523437 120.13542969 7.42015625 120.13414062 6.3125 120.1328125 C5.31863281 120.13168457 4.32476562 120.13055664 3.30078125 120.12939453 C1 120 1 120 0 119 C-0.09584998 117.45646869 -0.1218807 115.90854892 -0.12025452 114.36204529 C-0.12162918 113.35938629 -0.12300385 112.35672729 -0.12442017 111.32368469 C-0.12082489 110.21454208 -0.11722961 109.10539948 -0.11352539 107.96264648 C-0.11367142 106.80182556 -0.11381744 105.64100464 -0.1139679 104.44500732 C-0.11326817 100.58701748 -0.10547298 96.72907522 -0.09765625 92.87109375 C-0.09579228 90.20451272 -0.09431912 87.53793436 -0.09336853 84.87135315 C-0.09025548 78.5567112 -0.08204244 72.24208649 -0.07201904 65.92745215 C-0.0608571 58.74014367 -0.05534725 51.55283439 -0.05032361 44.3655194 C-0.0398598 29.5770029 -0.02151464 14.78850492 0 0 Z M25 23 C26 25 26 25 26 25 Z " fill="#00447C" transform="translate(0,240)"/>
<path d="M0 0 C12.21 0 24.42 0 37 0 C47.04464286 18.75 47.04464286 18.75 49.5 25 C51.95728746 31.25331218 55.12985302 37.08866722 58.34765625 42.9765625 C60.89330716 47.68601669 62.99881164 52.40344551 64.93041992 57.39355469 C66.88834516 62.16479638 69.27861358 66.72324421 71.625 71.3125 C72.59819844 73.22432272 73.56961672 75.1370529 74.5390625 77.05078125 C74.96396973 77.88262939 75.38887695 78.71447754 75.82666016 79.5715332 C76.99806824 81.99600182 77.99998311 84.49995776 79 87 C79.33 58.29 79.66 29.58 80 0 C88.25 0 96.5 0 105 0 C106.60871498 1.60871498 106.12600829 3.32900899 106.12698364 5.55529785 C106.13121338 7.03187614 106.13121338 7.03187614 106.13552856 8.5382843 C106.13249222 10.17158943 106.13249222 10.17158943 106.12939453 11.83789062 C106.13202301 13.54745186 106.13202301 13.54745186 106.13470459 15.29154968 C106.13912586 19.07979836 106.13618414 22.8680008 106.1328125 26.65625 C106.13348546 29.27559417 106.13445542 31.89493827 106.13571167 34.51428223 C106.1375332 40.01229356 106.13512749 45.51029148 106.13037109 51.00830078 C106.1249285 57.37316987 106.12669117 63.73800692 106.1321975 70.10287523 C106.13727429 76.21484332 106.1367471 82.32679716 106.13381577 88.43876648 C106.13314622 91.04481511 106.13397587 93.65086455 106.13629532 96.25691223 C106.13882022 99.89200033 106.13498353 103.52702596 106.12939453 107.16210938 C106.13141876 108.25097946 106.13344299 109.33984955 106.13552856 110.4617157 C106.13270874 111.44610123 106.12988892 112.43048676 106.12698364 113.44470215 C106.1264181 114.73556858 106.1264181 114.73556858 106.12584114 116.05251312 C106 118 106 118 105 119 C102.3337397 119.08855161 99.69352886 119.11524673 97.02734375 119.09765625 C96.22970108 119.0962413 95.43205841 119.09482635 94.61024475 119.09336853 C92.05262565 119.08775316 89.49509282 119.07519812 86.9375 119.0625 C85.20768355 119.05748698 83.47786574 119.05292373 81.74804688 119.04882812 C77.49866447 119.03777875 73.24934688 119.02050386 69 119 C64.78683691 110.61512231 60.60987073 102.21656882 56.5625 93.75 C56.09078369 92.76402832 55.61906738 91.77805664 55.13305664 90.76220703 C51.97387737 84.12626756 48.94056536 77.44568732 45.99072266 70.71459961 C43.04980208 64.03429479 39.92401173 57.44745164 36.76342773 50.86865234 C33.11399493 43.27218373 29.56508955 35.63947762 26 28 C25.67 58.03 25.34 88.06 25 119 C16.75 119 8.5 119 0 119 C0 79.73 0 40.46 0 0 Z " fill="#00437C" transform="translate(694,240)"/>
<path d="M0 0 C11.22 0 22.44 0 34 0 C36.57802342 5.15604684 38.42788879 8.914377 40 14.1875 C42.48743494 22.11231389 45.72346166 29.72495206 48.9375 37.375 C52.50346819 45.86665975 55.9684623 54.34564635 58.90722656 63.07788086 C61.03689764 69.32570479 63.6428796 75.34827877 66.25097656 81.40869141 C67.88377234 85.23511281 69.41501012 88.97503754 70.5 93 C71.45426933 96.35778274 72.57870164 99.54021681 73.94921875 102.75 C74.31402344 103.61109375 74.67882812 104.4721875 75.0546875 105.359375 C75.80174267 107.10078637 76.55295568 108.84042074 77.30859375 110.578125 C77.6540625 111.37734375 77.99953125 112.1765625 78.35546875 113 C78.67153076 113.721875 78.98759277 114.44375 79.31323242 115.1875 C80 117 80 117 80 119 C70.1 119 60.2 119 50 119 C48.515 115.24625 47.03 111.4925 45.5 107.625 C45.03013672 106.44244629 44.56027344 105.25989258 44.07617188 104.04150391 C43.71072266 103.11257324 43.34527344 102.18364258 42.96875 101.2265625 C42.59169922 100.27346191 42.21464844 99.32036133 41.82617188 98.33837891 C41 96 41 96 41 94 C24.5 94.33 8 94.66 -9 95 C-14.05046902 106.82200358 -14.05046902 106.82200358 -18 119 C-27.57 119 -37.14 119 -47 119 C-46.21795117 114.30770699 -45.53712716 111.51825752 -43.63671875 107.3671875 C-43.16169922 106.31273437 -42.68667969 105.25828125 -42.19726562 104.171875 C-41.69904297 103.08390625 -41.20082031 101.9959375 -40.6875 100.875 C-37.40655106 93.69602298 -34.47095235 86.60234696 -32.0612793 79.08544922 C-30.06896475 73.29320831 -27.53068867 67.7269563 -25.0625 62.125 C-21.47058547 53.96525454 -18.15682421 45.80587847 -15.21704102 37.38818359 C-13.31542201 32.09416783 -11.13517606 26.92659709 -8.9375 21.75 C-8.09175664 19.74508313 -7.24669703 17.73987768 -6.40234375 15.734375 C-5.85308228 14.43838379 -5.85308228 14.43838379 -5.29272461 13.11621094 C-3.48619843 8.76144227 -1.75096218 4.37740545 0 0 Z M15 27 C14.8047876 27.58152832 14.6095752 28.16305664 14.40844727 28.76220703 C9.66856022 42.81008332 4.48132634 56.5794177 -1.30078125 70.23193359 C-2.06129284 71.8381026 -2.06129284 71.8381026 -2 73 C9.22 73 20.44 73 32 73 C31.28696698 68.72180189 30.82149554 66.18071688 29.1875 62.4375 C27.60363761 58.62828257 26.2964754 54.83056757 25.125 50.875 C23.53869494 45.59990617 21.77770697 40.41746101 19.875 35.25 C19.62121582 34.54601074 19.36743164 33.84202148 19.10595703 33.11669922 C17.91750657 29.35673716 17.91750657 29.35673716 15 27 Z " fill="#00447C" transform="translate(556,240)"/>
<path d="M0 0 C1.43352212 0.00015908 2.86704998 0.00585132 4.30053711 0.01586914 C5.43041298 0.01799156 5.43041298 0.01799156 6.58311462 0.02015686 C8.99807646 0.02577163 11.41294687 0.03832656 13.82788086 0.05102539 C15.46134307 0.05603849 17.09480672 0.06060173 18.72827148 0.06469727 C22.74067671 0.07574585 26.75301326 0.09302033 30.76538086 0.11352539 C39.53107311 21.02338363 39.53107311 21.02338363 42.20288086 29.42602539 C44.74760757 37.39596808 47.90190655 45.09880878 51.03808594 52.85180664 C53.39642539 58.68455221 55.71490784 64.52259315 57.89038086 70.42602539 C60.07797165 76.34611572 62.39728246 82.20098433 64.76538086 88.05102539 C67.38017136 94.52660549 69.8809672 101.026887 72.20288086 107.61352539 C72.44973633 108.31340576 72.6965918 109.01328613 72.95092773 109.734375 C74.03295002 112.84827175 74.96479672 115.91118884 75.76538086 119.11352539 C65.86538086 119.11352539 55.96538086 119.11352539 45.76538086 119.11352539 C44.81663086 116.47352539 43.86788086 113.83352539 42.89038086 111.11352539 C42.59534668 110.29883789 42.3003125 109.48415039 41.99633789 108.64477539 C41.7577002 107.97446289 41.5190625 107.30415039 41.27319336 106.61352539 C41.0322998 105.94321289 40.79140625 105.27290039 40.54321289 104.58227539 C39.45827518 101.13880704 38.64101724 97.61607091 37.76538086 94.11352539 C12.52038086 94.60852539 12.52038086 94.60852539 -13.23461914 95.11352539 C-14.88461914 99.73352539 -16.53461914 104.35352539 -18.23461914 109.11352539 C-20.21461914 114.06352539 -20.21461914 114.06352539 -22.23461914 119.11352539 C-31.47461914 119.11352539 -40.71461914 119.11352539 -50.23461914 119.11352539 C-47.75842739 106.73256665 -42.19674062 95.19749937 -37.24926758 83.64526367 C-34.43210695 77.03855532 -31.85308174 70.45426406 -29.53930664 63.65649414 C-27.78571737 58.89450171 -25.76025739 54.26508199 -23.73461914 49.61352539 C-21.24393261 43.89286372 -18.82342392 38.20687456 -16.79711914 32.30102539 C-14.4679685 25.51932883 -11.74055277 18.9196214 -8.98461914 12.30102539 C-8.53546143 11.21909912 -8.08630371 10.13717285 -7.62353516 9.02246094 C-3.90007428 0.13688086 -3.90007428 0.13688086 0 0 Z M11.76538086 26.11352539 C11.53206055 26.8830957 11.29874023 27.65266602 11.05834961 28.44555664 C7.76683263 38.80860128 3.70788423 48.80266831 -0.48779297 58.83154297 C-0.95596436 59.95842529 -1.42413574 61.08530762 -1.90649414 62.24633789 C-2.54216309 63.7605835 -2.54216309 63.7605835 -3.19067383 65.30541992 C-4.43283048 68.42048061 -4.43283048 68.42048061 -5.23461914 73.11352539 C5.98538086 73.11352539 17.20538086 73.11352539 28.76538086 73.11352539 C26.9560377 65.87615275 25.25841561 59.16746782 22.62866211 52.28540039 C22.34435837 51.52551819 22.06005463 50.76563599 21.76713562 49.98272705 C20.87682188 47.60731072 19.97756776 45.23540519 19.07788086 42.86352539 C18.46464899 41.23224103 17.85201443 39.60073199 17.23999023 37.96899414 C15.7553176 34.01455097 14.26262905 30.06322336 12.76538086 26.11352539 C12.43538086 26.11352539 12.10538086 26.11352539 11.76538086 26.11352539 Z " fill="#00437C" transform="translate(236.234619140625,239.886474609375)"/>
<path d="M0 0 C8.85634638 7.60802327 10.93261592 17.5800655 12.05078125 28.76171875 C3.47078125 28.76171875 -5.10921875 28.76171875 -13.94921875 28.76171875 C-15.26921875 25.13171875 -16.58921875 21.50171875 -17.94921875 17.76171875 C-22.37202212 13.33891538 -26.77206401 12.65967752 -32.82421875 12.38671875 C-38.1230627 12.51615616 -42.54719748 13.76202915 -46.94921875 16.76171875 C-50.0551311 20.99705377 -50.51413644 24.58330658 -49.94921875 29.76171875 C-48.56851672 33.90382483 -46.2118233 35.39115674 -42.51171875 37.38671875 C-35.17562732 40.78819137 -27.53159035 42.38236573 -19.57421875 43.57421875 C-7.20341353 45.78775388 3.98033422 51.50591079 11.515625 61.75390625 C15.90696235 69.03633758 16.26306156 77.53159511 14.3671875 85.7109375 C10.8231199 96.25490624 4.46198774 103.83049954 -4.94921875 109.76171875 C-21.49987291 117.49841507 -40.05288721 118.82170637 -57.5546875 113.67578125 C-67.19210363 109.99689809 -75.43960425 103.44265946 -80.0546875 94.08203125 C-82.70857095 87.19815888 -82.94921875 81.1712932 -82.94921875 73.76171875 C-74.03921875 73.43171875 -65.12921875 73.10171875 -55.94921875 72.76171875 C-53.94921875 79.76171875 -53.94921875 79.76171875 -53.63671875 83.38671875 C-52.76309417 87.67542123 -51.33602531 89.0522735 -47.94921875 91.76171875 C-43.31887872 94.54531472 -39.39571727 95.27792051 -34.07421875 95.19921875 C-33.36749023 95.19237061 -32.66076172 95.18552246 -31.93261719 95.1784668 C-24.78648584 94.95834485 -20.88177499 93.25439156 -15.44921875 88.63671875 C-13.21905651 84.36224112 -13.19593985 80.48173231 -13.94921875 75.76171875 C-18.23727644 68.35507365 -32.14404837 66.45478363 -39.82421875 64.32421875 C-68.31547072 56.14510925 -68.31547072 56.14510925 -75.94921875 43.07421875 C-79.88285945 35.60303311 -79.95731811 26.90810593 -77.94921875 18.82421875 C-74.87397679 9.74152737 -69.12765945 2.48483583 -60.6640625 -2.02734375 C-41.85750562 -10.41587991 -17.82747036 -11.89496762 0 0 Z " fill="#00437C" transform="translate(446.94921875,248.23828125)"/>
<path d="M0 0 C4.49414904 2.88550509 9.0230512 5.95196609 10.74609375 11.12109375 C10.87391161 13.79504339 10.79001246 16.44205232 10.74609375 19.12109375 C6.12609375 19.12109375 1.50609375 19.12109375 -3.25390625 19.12109375 C-3.62515625 18.02796875 -3.99640625 16.93484375 -4.37890625 15.80859375 C-5.63341051 12.94530394 -6.2832272 12.09875398 -8.87890625 10.12109375 C-13.30457983 8.80978306 -16.80865415 8.92145086 -21.25390625 10.12109375 C-26.23262607 13.04338582 -28.28176756 16.93954895 -29.94140625 22.37109375 C-30.91319556 30.92283972 -30.75947904 38.36353068 -25.50390625 45.49609375 C-18.86635857 50.28987819 -11.08202225 49.3329826 -3.25390625 49.12109375 C-3.25390625 45.49109375 -3.25390625 41.86109375 -3.25390625 38.12109375 C-7.21390625 38.12109375 -11.17390625 38.12109375 -15.25390625 38.12109375 C-16.37890625 29.37109375 -16.37890625 29.37109375 -15.25390625 27.12109375 C-6.67390625 27.12109375 1.90609375 27.12109375 10.74609375 27.12109375 C10.74609375 37.35109375 10.74609375 47.58109375 10.74609375 58.12109375 C2.25114208 60.43789875 -3.32442262 61.67743707 -11.69140625 61.62109375 C-12.69623047 61.61464844 -13.70105469 61.60820312 -14.73632812 61.6015625 C-24.58770628 61.35894917 -32.24608634 59.66927587 -39.31640625 52.30859375 C-45.68718926 44.07772811 -47.13906314 34.14554882 -46.015625 23.9609375 C-44.6651874 16.22661308 -40.8965557 9.88386363 -35.50390625 4.24609375 C-25.51240403 -2.28681155 -11.36778798 -5.29146479 0 0 Z " fill="#00447C" transform="translate(425.25390625,420.87890625)"/>
<path d="M0 0 C2.05454967 -0.00958167 4.10804436 -0.04052735 6.16235352 -0.07226562 C15.08269906 -0.107196 23.50481465 -0.06416359 30.71899414 5.67773438 C34.19896761 10.28027993 34.35722336 15.62493133 33.65649414 21.24023438 C32.14551323 25.13736831 29.85620971 28.52047614 26.65649414 31.24023438 C27.58461914 32.07554687 27.58461914 32.07554687 28.53149414 32.92773438 C32.79218999 37.56437398 33.12524703 42.78781802 33.71899414 48.80273438 C34.15605626 53.03248432 34.62168099 57.10098177 35.65649414 61.24023438 C30.70649414 61.24023438 25.75649414 61.24023438 20.65649414 61.24023438 C19.20352659 56.15484795 18.37675896 52.63648483 18.09399414 47.55273438 C17.88286357 43.88595648 17.55243486 40.82399724 16.65649414 37.24023438 C11.70649414 36.91023438 6.75649414 36.58023438 1.65649414 36.24023438 C1.65649414 44.49023438 1.65649414 52.74023438 1.65649414 61.24023438 C-2.96350586 61.24023438 -7.58350586 61.24023438 -12.34350586 61.24023438 C-13.65888898 58.60946812 -13.47060911 56.65077106 -13.47290039 53.70483398 C-13.47605255 52.54700912 -13.47920471 51.38918427 -13.48245239 50.1962738 C-13.48042816 48.94105423 -13.47840393 47.68583466 -13.47631836 46.39257812 C-13.47727509 45.11040909 -13.47823181 43.82824005 -13.47921753 42.50721741 C-13.48069257 39.79280392 -13.4785458 37.07842334 -13.47387695 34.36401367 C-13.46817408 30.87782397 -13.47146339 27.39171115 -13.47744942 23.90552425 C-13.4819224 20.58870263 -13.47879515 17.27190193 -13.47631836 13.95507812 C-13.47834259 12.69783432 -13.48036682 11.44059052 -13.48245239 10.14524841 C-13.47930023 8.99057571 -13.47614807 7.83590302 -13.47290039 6.64624023 C-13.4721048 5.62412949 -13.4713092 4.60201874 -13.4704895 3.54893494 C-13.14942587 -2.28835068 -4.44905243 0.01253401 0 0 Z M1.65649414 11.24023438 C1.65649414 16.19023437 1.65649414 21.14023437 1.65649414 26.24023438 C4.47180664 26.33304687 4.47180664 26.33304687 7.34399414 26.42773438 C8.92760742 26.47994141 8.92760742 26.47994141 10.54321289 26.53320312 C14.09817929 26.19867053 15.90709983 25.50886028 18.65649414 23.24023438 C19.44181126 21.08659005 19.44181126 21.08659005 19.28149414 18.74023438 C19.30083008 17.58007812 19.30083008 17.58007812 19.32055664 16.39648438 C18.81014658 14.03669537 18.81014658 14.03669537 16.51196289 12.47070312 C13.21447782 11.04976223 10.91764071 10.93492185 7.34399414 11.05273438 C4.52868164 11.14554687 4.52868164 11.14554687 1.65649414 11.24023438 Z " fill="#00447C" transform="translate(490.343505859375,419.759765625)"/>
<path d="M0 0 C6.89709944 4.44889239 10.26619072 11.56276667 12.6328125 19.21484375 C14.45027855 28.45648717 13.3145748 37.94466636 9.046875 46.3203125 C4.6194152 52.59397175 0.45317242 56.88202528 -6.953125 59.3203125 C-10.11215665 59.7412145 -13.20706053 59.7856276 -16.390625 59.7578125 C-17.60202148 59.7877832 -17.60202148 59.7877832 -18.83789062 59.81835938 C-25.76771557 59.81277531 -30.85262592 57.93241438 -36.16015625 53.4609375 C-44.12441535 44.08210197 -45.69041011 34.38994277 -44.953125 22.3203125 C-43.57024927 13.27302381 -40.15427123 6.64621993 -32.953125 0.9453125 C-23.27474526 -4.29714319 -10.03220886 -4.81411365 0 0 Z M-27.765625 13.8203125 C-31.56793594 21.82517765 -31.259746 32.82284762 -28.328125 41.0703125 C-26.85648365 44.16796318 -25.98483974 45.29580565 -23.203125 47.4453125 C-18.2398746 48.78157222 -14.10380824 49.20013746 -9.203125 47.1953125 C-5.34065477 43.97658731 -2.85186464 40.26766024 -1.953125 35.3203125 C-1.35697601 26.92536195 -0.80569988 18.44997587 -5.953125 11.3203125 C-9.1493272 8.34203318 -11.65382021 7.09107024 -15.953125 6.8203125 C-21.26672403 7.11494801 -24.67007552 9.55058908 -27.765625 13.8203125 Z " fill="#00437C" transform="translate(606.953125,422.6796875)"/>
<path d="M0 0 C4.62 0 9.24 0 14 0 C14.01458252 1.24612061 14.02916504 2.49224121 14.04418945 3.77612305 C14.102243 8.40759712 14.17947576 13.03858862 14.26245117 17.66967773 C14.29566727 19.67252764 14.32370952 21.6754704 14.34643555 23.6784668 C14.38004234 26.56078594 14.43236148 29.44225668 14.48828125 32.32421875 C14.49467117 33.21711105 14.5010611 34.11000336 14.50764465 35.029953 C14.62017675 39.8082589 14.86110378 43.14176347 18 47 C21.9314032 49.29331853 25.51764479 49.39318905 30 49 C34.35869953 47.44766345 34.35869953 47.44766345 37.15795898 43.96191406 C38.3230444 39.86367799 38.2275836 36.03503556 38.16015625 31.796875 C38.15495468 30.91847961 38.14975311 30.04008423 38.14439392 29.1350708 C38.12663062 26.33987625 38.09544239 23.54505361 38.0625 20.75 C38.03491553 17.94070161 38.0102298 15.13145299 37.99131775 12.32208252 C37.97902197 10.57590094 37.96138122 8.82974758 37.93800354 7.0836792 C37.92112366 5.05575109 37.95525599 3.0275047 38 1 C39 0 39 0 42.16015625 -0.09765625 C44.09181641 -0.08025391 44.09181641 -0.08025391 46.0625 -0.0625 C47.35285156 -0.05347656 48.64320313 -0.04445313 49.97265625 -0.03515625 C50.97167969 -0.02355469 51.97070312 -0.01195312 53 0 C53.07448767 5.97734898 53.1287615 11.95442418 53.16479492 17.93212891 C53.17982599 19.9631013 53.20025647 21.99404154 53.22631836 24.02490234 C53.26295232 26.95418259 53.27978351 29.88303144 53.29296875 32.8125 C53.30845261 33.71178223 53.32393646 34.61106445 53.33988953 35.53759766 C53.34162758 42.13634272 52.48979957 47.88084976 48.23828125 53.20703125 C39.8911047 60.16583361 32.74460901 61.82553851 21.921875 61.41015625 C13.85439104 60.56644528 8.279327 57.12186252 3.15625 50.94140625 C-0.2933549 45.14933315 -0.26936186 39.53289766 -0.1953125 33.0078125 C-0.1924826 32.06187225 -0.18965271 31.11593201 -0.18673706 30.1413269 C-0.17558932 27.13575306 -0.15049465 24.13048298 -0.125 21.125 C-0.11496321 19.08073349 -0.10583859 17.03646228 -0.09765625 14.9921875 C-0.07566767 9.99467556 -0.04117509 4.9973892 0 0 Z " fill="#00417A" transform="translate(660,421)"/>
<path d="M0 0 C32.46153846 0 32.46153846 0 38.875 5.4375 C42.91718224 10.31189623 43.4415155 13.92865946 43.31640625 20.17578125 C42.69508165 25.72167861 40.51960474 29.51935948 36.5625 33.375 C31.54295272 36.55812754 27.06445857 37.35505358 21.1875 37.625 C20.14819336 37.68300781 20.14819336 37.68300781 19.08789062 37.7421875 C17.39232985 37.83573568 15.69620288 37.91892364 14 38 C14.00523682 38.6612085 14.01047363 39.32241699 14.01586914 40.00366211 C14.03657656 42.98159851 14.04964012 45.95951982 14.0625 48.9375 C14.07087891 49.97841797 14.07925781 51.01933594 14.08789062 52.09179688 C14.09111328 53.08115234 14.09433594 54.07050781 14.09765625 55.08984375 C14.10289307 56.00628662 14.10812988 56.92272949 14.11352539 57.86694336 C14 60 14 60 13 61 C8.71 61 4.42 61 0 61 C0 40.87 0 20.74 0 0 Z M13 11 C13 15.95 13 20.9 13 26 C20.50837005 26.43828913 20.50837005 26.43828913 27 23 C28.87264676 21.12735324 28.23607378 18.50240053 28.328125 16.0078125 C28.12820527 13.94274085 28.12820527 13.94274085 26.87109375 12.25390625 C24.158994 10.43640308 22.03800212 10.70845154 18.8125 10.8125 C15.9353125 10.9053125 15.9353125 10.9053125 13 11 Z " fill="#00447D" transform="translate(756,421)"/>
<path d="" fill="#000000" transform="translate(0,0)"/>
<path d="" fill="#000000" transform="translate(0,0)"/>
<path d="" fill="#000000" transform="translate(0,0)"/>
<path d="" fill="#000000" transform="translate(0,0)"/>
<path d="" fill="#000000" transform="translate(0,0)"/>
<path d="" fill="#000000" transform="translate(0,0)"/>
<path d="" fill="#000000" transform="translate(0,0)"/>
<path d="" fill="#000000" transform="translate(0,0)"/>
<path d="" fill="#000000" transform="translate(0,0)"/>
<path d="" fill="#000000" transform="translate(0,0)"/>
<path d="" fill="#000000" transform="translate(0,0)"/>
</svg>
