<svg viewBox="958 0 482 482" xmlns="http://www.w3.org/2000/svg">
  <path d="M0 0 C106.26 0 212.52 0 322 0 C322 105.93 322 211.86 322 321 C269.2 321 216.4 321 162 321 C162 374.13 162 427.26 162 482 C55.74 482 -50.52 482 -160 482 C-160 375.74 -160 269.48 -160 160 C-107.2 160 -54.4 160 0 160 C0 107.2 0 54.4 0 0 Z" fill="#00447C" transform="translate(1118,0)"/>
  <path d="M0 0 C79.53 0 159.06 0 241 0 C241 79.53 241 159.06 241 241 C161.47 241 81.94 241 0 241 C0 161.47 0 81.94 0 0 Z" fill="#4E89BD" transform="translate(958,241)"/>
  <path d="M0 0 C35.19630462 -0.04217371 35.19630462 -0.04217371 48.73828125 -0.05078125 C49.57111507 -0.05131248 50.4039489 -0.05184372 51.26202011 -0.05239105 C57.48717985 -0.05626174 63.71233978 -0.0595243 69.9375 -0.0625 C70.81934338 -0.0629343 71.70118675 -0.06336861 72.60975266 -0.06381607 C131.90818032 -0.09221063 191.20291409 0.10288155 250.5 0.5 C251.84083657 0.50896057 251.84083657 0.50896057 253.20876074 0.51810217 C275.80591017 0.66929905 298.40298923 0.82930517 321 1 C321.17768122 24.31242449 321.34308308 47.62492693 321.5 70.9375 C321.50594854 71.81934338 321.51189708 72.70118675 321.51802588 73.60975266 C321.91720405 132.90684084 322.09149429 192.20159434 322.0625 251.5 C322.06207577 252.39389104 322.06165154 253.28778209 322.06121445 254.20876074 C322.05821367 260.42424901 322.05471626 266.63973686 322.05078125 272.85522461 C322.05004482 274.02254173 322.05004482 274.02254173 322.04929352 275.21344101 C322.0390489 290.80896955 322.01852689 306.40447647 322 322 C295.27 322 268.54 322 241 322 C241 242.47 241 162.94 241 81 C161.47 81 81.94 81 0 81 C0 54.27 0 27.54 0 0 Z" fill="#00447C" transform="translate(958,160)"/>
  <path d="M0 0 C79.2 0 158.4 0 240 0 C240 79.2 240 158.4 240 240 C213.6 240 187.2 240 160 240 C160 187.2 160 134.4 160 80 C107.2 80 54.4 80 0 80 C0 53.6 0 27.2 0 0 Z" fill="#4E89BD" transform="translate(1119,81)"/>
  <path d="M0 0 C52.8 0 105.6 0 160 0 C160 52.8 160 105.6 160 160 C107.2 160 54.4 160 0 160 C0 107.2 0 54.4 0 0 Z" fill="#94B8D8" transform="translate(959,321)"/>
</svg>
